# xmcd
#
# Track frame offsets: 
#        150
#        19985
#        20285
#        39306
#        50526
#        50826
#        69627
#        83854
#        84154
#        120994
#
# Disc length: 1867 seconds
#
# Revision: 0
# Processed by: cddbd v1.5.2PL0 Copyright (c) Steve Scherf et al.
# Submitted via: ExactAudioCopy v1.3
#
DISCID=7707490a
DTITLE=145th Street - Deluxe Blues Band
DYEAR=2005
DGENRE=Chicago Blues, Electric Blues
TTITLE0=Roll The Dice
TTITLE1=Mary Ann
TTITLE2=Snakeskin On My Feet
TTITLE3=Reconsider, Baby
TTITLE4=Say Yes To My Baby
TTITLE5=Walking Through The Park
TTITLE6=It'll Come To Ya
TTITLE7=You Is So Mean
TTITLE8=Just A Little Bit
TTITLE9=Met Her Last Night
EXTD=
EXTT0=
EXTT1=
EXTT2=
EXTT3=
EXTT4=
EXTT5=
EXTT6=
EXTT7=
EXTT8=
EXTT9=
PLAYORDER=
